<svg width="24" height="24" viewBox="0 0 24 24" fill="none" xmlns="http://www.w3.org/2000/svg">
<path d="M12.9806 21.9525C12.658 21.9839 12.3309 22 12.0001 22C11.6693 22 11.3422 21.9839 11.0195 21.9525L11.2133 19.9619C11.4716 19.9871 11.734 20 12.0001 20C12.2662 20 12.5286 19.9871 12.7869 19.9619L12.9806 21.9525Z" fill="#636764"/>
<path d="M9.09614 21.5719L9.67605 19.6578C9.17121 19.5048 8.68722 19.3031 8.22948 19.058L7.28516 20.821C7.85777 21.1277 8.46371 21.3803 9.09614 21.5719Z" fill="#636764"/>
<path d="M5.6559 19.7304L6.92555 18.1851C6.52013 17.852 6.14794 17.4798 5.81484 17.0744L4.26953 18.344C4.68532 18.8501 5.14983 19.3146 5.6559 19.7304Z" fill="#636764"/>
<path d="M3.1791 16.7148L4.94213 15.7705C4.69695 15.3127 4.49525 14.8288 4.3423 14.3239L2.42822 14.9038C2.61983 15.5363 2.8724 16.1422 3.1791 16.7148Z" fill="#636764"/>
<path d="M2.04746 12.9805L4.03806 12.7868C4.01292 12.5285 4 12.2661 4 12C4 11.7339 4.01292 11.4715 4.03806 11.2132L2.04746 11.0195C2.01607 11.3421 2 11.6692 2 12C2 12.3308 2.01607 12.6579 2.04746 12.9805Z" fill="#636764"/>
<path d="M2.42822 9.09617L4.3423 9.67608C4.49526 9.17124 4.69695 8.68725 4.94213 8.22951L3.1791 7.28519C2.8724 7.8578 2.61983 8.46374 2.42822 9.09617Z" fill="#636764"/>
<path d="M4.26953 5.65596L5.81484 6.92561C6.14794 6.52019 6.52013 6.148 6.92555 5.8149L5.6559 4.26959C5.14984 4.68538 4.68532 5.14989 4.26953 5.65596Z" fill="#636764"/>
<path d="M7.28516 3.17901L8.22947 4.94204C8.68722 4.69686 9.1712 4.49516 9.67604 4.34221L9.09613 2.42813C8.4637 2.61974 7.85776 2.87231 7.28516 3.17901Z" fill="#636764"/>
<path d="M11.0195 2.04746C11.3421 2.01607 11.6692 2 12 2C12.3308 2 12.6579 2.01607 12.9805 2.04746L12.7868 4.03806C12.5285 4.01292 12.2661 4 12 4C11.7339 4 11.4715 4.01292 11.2132 4.03806L11.0195 2.04746Z" fill="#636764"/>
<path d="M14.9036 2.42813L14.3237 4.34221C14.8286 4.49517 15.3125 4.69686 15.7703 4.94204L16.7146 3.17901C16.142 2.87231 15.5361 2.61974 14.9036 2.42813Z" fill="#636764"/>
<path d="M18.3438 4.26959L17.0742 5.8149C17.4796 6.148 17.8518 6.52019 18.1849 6.92561L19.7302 5.65596C19.3144 5.1499 18.8499 4.68538 18.3438 4.26959Z" fill="#636764"/>
<path d="M20.8211 7.28519L19.0581 8.2295C19.3032 8.68725 19.5049 9.17123 19.6579 9.67607L21.572 9.09616C21.3804 8.46373 21.1278 7.85779 20.8211 7.28519Z" fill="#636764"/>
<path d="M21.9525 11.0195L19.9619 11.2132C19.9871 11.4715 20 11.7339 20 12C20 12.2661 19.9871 12.5285 19.9619 12.7868L21.9525 12.9806C21.9839 12.6579 22 12.3308 22 12C22 11.6692 21.9839 11.3421 21.9525 11.0195Z" fill="#636764"/>
<path d="M21.572 14.9038L19.6579 14.3239C19.5049 14.8288 19.3032 15.3127 19.0581 15.7705L20.8211 16.7148C21.1278 16.1422 21.3804 15.5363 21.572 14.9038Z" fill="#636764"/>
<path d="M19.7302 18.344L18.1849 17.0744C17.8518 17.4798 17.4796 17.852 17.0742 18.1851L18.3438 19.7304C18.8499 19.3146 19.3144 18.8501 19.7302 18.344Z" fill="#636764"/>
<path d="M16.7146 20.821L15.7703 19.058C15.3125 19.3031 14.8286 19.5048 14.3237 19.6578L14.9036 21.5719C15.5361 21.3803 16.142 21.1277 16.7146 20.821Z" fill="#636764"/>
<path fill-rule="evenodd" clip-rule="evenodd" d="M9 12C9 10.3431 10.3431 9 12 9C13.6569 9 15 10.3431 15 12C15 13.6569 13.6569 15 12 15C10.3431 15 9 13.6569 9 12ZM12 13C11.4477 13 11 12.5523 11 12C11 11.4477 11.4477 11 12 11C12.5523 11 13 11.4477 13 12C13 12.5523 12.5523 13 12 13Z" fill="#636764"/>
<path fill-rule="evenodd" clip-rule="evenodd" d="M12 6C8.68629 6 6 8.68629 6 12C6 15.3137 8.68629 18 12 18C15.3137 18 18 15.3137 18 12C18 8.68629 15.3137 6 12 6ZM8 12C8 14.2091 9.79086 16 12 16C14.2091 16 16 14.2091 16 12C16 9.79086 14.2091 8 12 8C9.79086 8 8 9.79086 8 12Z" fill="#636764"/>
</svg>
