<svg width="20" height="20" viewBox="0 0 20 20" fill="none" xmlns="http://www.w3.org/2000/svg">
<path fill-rule="evenodd" clip-rule="evenodd" d="M10.0002 17.5C14.1423 17.5 17.5002 14.1422 17.5002 10C17.5002 5.85786 14.1423 2.49999 10.0002 2.49999C5.85803 2.49999 2.50016 5.85786 2.50016 10C2.50016 14.1422 5.85803 17.5 10.0002 17.5ZM10.0002 19.1667C15.0627 19.1667 19.1668 15.0626 19.1668 10C19.1668 4.93739 15.0627 0.833328 10.0002 0.833328C4.93755 0.833328 0.833496 4.93739 0.833496 10C0.833496 15.0626 4.93755 19.1667 10.0002 19.1667Z" fill="#636764"/>
<path d="M13.3335 10L8.3335 13.6084V6.39156L13.3335 10Z" fill="#636764"/>
</svg>
